<svg width="28" height="28" viewBox="0 0 28 28" fill="none" xmlns="http://www.w3.org/2000/svg">
<path d="M18.6668 4.95833C18.6668 6.405 17.4885 7.58333 16.0418 7.58333H11.9585C11.2352 7.58333 10.5818 7.29167 10.1035 6.81333C9.62516 6.335 9.3335 5.68167 9.3335 4.95833C9.3335 3.51167 10.5118 2.33333 11.9585 2.33333H16.0418C16.7652 2.33333 17.4185 2.625 17.8968 3.10333C18.3752 3.58167 18.6668 4.235 18.6668 4.95833Z" fill="#F0F0F0"/>
<path d="M21.9682 5.86833C21.6998 5.64667 21.3965 5.47167 21.0698 5.34333C20.7315 5.215 20.3932 5.48333 20.3232 5.83333C19.9265 7.82833 18.1648 9.33333 16.0415 9.33333H11.9582C10.7915 9.33333 9.69484 8.87833 8.8665 8.05C8.25984 7.44333 7.83984 6.67333 7.6765 5.845C7.6065 5.495 7.2565 5.215 6.91817 5.355C5.56484 5.90333 4.6665 7.14 4.6665 9.625V21C4.6665 24.5 6.75484 25.6667 9.33317 25.6667H18.6665C21.2448 25.6667 23.3332 24.5 23.3332 21V9.625C23.3332 7.72333 22.8082 6.55667 21.9682 5.86833ZM9.33317 14.2917H13.9998C14.4782 14.2917 14.8748 14.6883 14.8748 15.1667C14.8748 15.645 14.4782 16.0417 13.9998 16.0417H9.33317C8.85484 16.0417 8.45817 15.645 8.45817 15.1667C8.45817 14.6883 8.85484 14.2917 9.33317 14.2917ZM18.6665 20.7083H9.33317C8.85484 20.7083 8.45817 20.3117 8.45817 19.8333C8.45817 19.355 8.85484 18.9583 9.33317 18.9583H18.6665C19.1448 18.9583 19.5415 19.355 19.5415 19.8333C19.5415 20.3117 19.1448 20.7083 18.6665 20.7083Z" fill="#FF520D"/>
</svg>
