<svg width="500" height="500" viewBox="0 0 500 500" fill="none" xmlns="http://www.w3.org/2000/svg">
<path d="M500 382.4H0V382.65H500V382.4Z" fill="#E6E6E6"/>
<path d="M468.4 391.22H449.63V391.47H468.4V391.22Z" fill="#E6E6E6"/>
<path d="M381.76 398.08H373.07V398.33H381.76V398.08Z" fill="#E6E6E6"/>
<path d="M299.32 394.63H279.96V394.88H299.32V394.63Z" fill="#E6E6E6"/>
<path d="M124.12 394.5H80.9302V394.75H124.12V394.5Z" fill="#E6E6E6"/>
<path d="M72.0302 394.5H65.7002V394.75H72.0302V394.5Z" fill="#E6E6E6"/>
<path d="M282.98 388.58H189.3V388.83H282.98V388.58Z" fill="#E6E6E6"/>
<path d="M237 337.8H43.91C42.3973 337.797 40.9475 337.195 39.8788 336.124C38.8102 335.053 38.21 333.603 38.21 332.09V60.66C38.2231 59.156 38.8292 57.718 39.8964 56.6582C40.9637 55.5985 42.4059 55.0026 43.91 55H237C238.514 55 239.967 55.6016 241.038 56.6724C242.108 57.7433 242.71 59.1956 242.71 60.71V332.09C242.71 333.604 242.108 335.057 241.038 336.128C239.967 337.198 238.514 337.8 237 337.8ZM43.91 55.2C42.4636 55.2026 41.0774 55.7791 40.0556 56.8027C39.0338 57.8264 38.46 59.2136 38.46 60.66V332.09C38.46 333.536 39.0338 334.924 40.0556 335.947C41.0774 336.971 42.4636 337.547 43.91 337.55H237C238.447 337.547 239.834 336.971 240.858 335.948C241.881 334.924 242.457 333.537 242.46 332.09V60.66C242.457 59.2127 241.881 57.8255 240.858 56.8021C239.834 55.7787 238.447 55.2026 237 55.2H43.91Z" fill="#E6E6E6"/>
<path d="M453.31 337.8H260.21C258.696 337.797 257.246 337.195 256.175 336.125C255.105 335.054 254.503 333.604 254.5 332.09V60.66C254.516 59.1551 255.124 57.7171 256.193 56.6576C257.262 55.5981 258.705 55.0025 260.21 55H453.31C454.812 55.0052 456.252 55.6022 457.317 56.6617C458.382 57.7212 458.987 59.1578 459 60.66V332.09C459 333.601 458.401 335.05 457.335 336.121C456.268 337.191 454.821 337.795 453.31 337.8ZM260.21 55.2C258.763 55.2026 257.375 55.7787 256.352 56.8021C255.329 57.8255 254.753 59.2127 254.75 60.66V332.09C254.753 333.537 255.329 334.924 256.352 335.948C257.375 336.971 258.763 337.547 260.21 337.55H453.31C454.757 337.547 456.145 336.971 457.168 335.948C458.191 334.924 458.767 333.537 458.77 332.09V60.66C458.767 59.2127 458.191 57.8255 457.168 56.8021C456.145 55.7787 454.757 55.2026 453.31 55.2H260.21Z" fill="#E6E6E6"/>
<path d="M260.96 73.6802H58.71V217.81H260.96V73.6802Z" fill="#FAFAFA"/>
<path d="M264.7 73.6802H60.46V217.81H264.7V73.6802Z" fill="#F5F5F5"/>
<path d="M259.46 211.92V79.5601L65.7 79.5601V211.92H259.46Z" fill="#FAFAFA"/>
<path d="M100.98 211.92L131.72 79.5601H172.02L141.28 211.92H100.98Z" fill="white"/>
<path d="M147.8 211.92L178.55 79.5601H196.75L166 211.92H147.8Z" fill="white"/>
<path d="M259.46 211.92V79.5601H258.79V211.92H259.46Z" fill="#FAFAFA"/>
<path d="M54.7798 73.4401V130.56H69.8898C69.8898 130.56 96.9998 112.85 103.21 76.4201C103.36 75.5476 103.318 74.6528 103.085 73.7985C102.853 72.9442 102.436 72.1512 101.864 71.4754C101.292 70.7995 100.579 70.2572 99.7747 69.8866C98.9707 69.516 98.0952 69.326 97.2098 69.3301H58.8898C57.7997 69.3301 56.7544 69.7632 55.9836 70.5339C55.2128 71.3047 54.7798 72.3501 54.7798 73.4401Z" fill="#E0E0E0"/>
<path d="M54.7798 235.44V135.17H69.8898C69.8898 135.17 100.56 194.22 104.11 235.44H54.7798Z" fill="#E0E0E0"/>
<path d="M69.4498 130.56H55.3298C54.4959 130.56 53.8198 131.236 53.8198 132.07V133.66C53.8198 134.494 54.4959 135.17 55.3298 135.17H69.4498C70.2838 135.17 70.9598 134.494 70.9598 133.66V132.07C70.9598 131.236 70.2838 130.56 69.4498 130.56Z" fill="#F5F5F5"/>
<path d="M269 73.4401V130.56H253.86C253.86 130.56 226.71 112.85 220.54 76.4201C220.391 75.5479 220.435 74.6536 220.668 73.8001C220.902 72.9466 221.319 72.1543 221.89 71.4789C222.462 70.8035 223.174 70.2612 223.977 69.89C224.78 69.5188 225.655 69.3277 226.54 69.3301H264.9C265.987 69.3354 267.029 69.7704 267.797 70.5403C268.565 71.3102 268.997 72.3526 269 73.4401Z" fill="#E0E0E0"/>
<path d="M269 235.44V135.17H253.86C253.86 135.17 223.2 194.22 219.64 235.44H269Z" fill="#E0E0E0"/>
<path d="M254.3 135.16H268.42C269.254 135.16 269.93 134.484 269.93 133.65V132.06C269.93 131.226 269.254 130.55 268.42 130.55H254.3C253.466 130.55 252.79 131.226 252.79 132.06V133.65C252.79 134.484 253.466 135.16 254.3 135.16Z" fill="#F5F5F5"/>
<path d="M264.43 253.66H231.2V382.4H264.43V253.66Z" fill="#FAFAFA"/>
<path d="M255.56 382.4H264.43V367.53H246.26L255.56 382.4Z" fill="#F4F8FF"/>
<path d="M105.45 253.66H72.2202V382.4H105.45V253.66Z" fill="#E0E0E0"/>
<path d="M264.43 253.66H97.71V377.28H264.43V253.66Z" fill="#FAFAFA"/>
<path d="M147.8 231.8C147.8 243.8 159.36 253.66 173.5 253.66H186.26C200.39 253.66 211.95 243.82 211.95 231.8H147.8Z" fill="#EBEBEB"/>
<path d="M140.4 204.33H164.4C164.4 204.33 160.23 215.33 160.23 221.81C160.23 228.29 178.49 253.66 152.4 253.66C126.31 253.66 144.57 228.28 144.57 221.81C144.57 215.34 140.4 204.33 140.4 204.33Z" fill="#E0E0E0"/>
<path d="M257.55 261.19H104.59V292.36H257.55V261.19Z" fill="#EBEBEB"/>
<path d="M106.58 382.4H97.71V367.53H115.89L106.58 382.4Z" fill="#FAFAFA"/>
<path d="M176.37 276.77C176.37 277.699 176.646 278.608 177.162 279.381C177.679 280.154 178.413 280.756 179.272 281.112C180.13 281.468 181.075 281.561 181.987 281.38C182.899 281.198 183.736 280.751 184.394 280.093C185.051 279.436 185.498 278.598 185.68 277.687C185.861 276.775 185.768 275.83 185.412 274.971C185.057 274.112 184.454 273.378 183.681 272.862C182.908 272.345 182 272.07 181.07 272.07C179.824 272.07 178.628 272.565 177.747 273.446C176.865 274.328 176.37 275.523 176.37 276.77Z" fill="#FAFAFA"/>
<path d="M257.55 299.89H104.59V331.06H257.55V299.89Z" fill="#EBEBEB"/>
<path d="M176.37 315.47C176.37 316.4 176.646 317.308 177.162 318.081C177.679 318.854 178.413 319.457 179.272 319.812C180.13 320.168 181.075 320.261 181.987 320.08C182.899 319.898 183.736 319.451 184.394 318.793C185.051 318.136 185.498 317.299 185.68 316.387C185.861 315.475 185.768 314.53 185.412 313.671C185.057 312.813 184.454 312.079 183.681 311.562C182.908 311.046 182 310.77 181.07 310.77C179.824 310.77 178.628 311.265 177.747 312.147C176.865 313.028 176.37 314.224 176.37 315.47Z" fill="#FAFAFA"/>
<path d="M257.55 338.58H104.59V369.75H257.55V338.58Z" fill="#EBEBEB"/>
<path d="M181.07 358.87C183.666 358.87 185.77 356.766 185.77 354.17C185.77 351.574 183.666 349.47 181.07 349.47C178.474 349.47 176.37 351.574 176.37 354.17C176.37 356.766 178.474 358.87 181.07 358.87Z" fill="#FAFAFA"/>
<path d="M369.88 71.9399H295.65V124.78H369.88V71.9399Z" fill="#E0E0E0"/>
<path d="M375.94 71.9399H299.87V124.78H375.94V71.9399Z" fill="#F5F5F5"/>
<path d="M371.09 119.93V76.79H304.72V119.93H371.09Z" fill="white"/>
<path d="M359.41 107.36V89.3501H316.4V107.36H359.41Z" fill="#F5F5F5"/>
<path d="M430.1 98.3599H384.92V145.74H430.1V98.3599Z" fill="#E0E0E0"/>
<path d="M436.18 98.3599H389.15V145.74H436.18V98.3599Z" fill="#F5F5F5"/>
<path d="M431.33 140.89V103.21H394V140.89H431.33Z" fill="white"/>
<path d="M405.68 122.05C405.68 120.386 406.34 118.79 407.516 117.613C408.692 116.435 410.286 115.773 411.95 115.77H413.37C415.034 115.773 416.629 116.435 417.804 117.613C418.98 118.79 419.64 120.386 419.64 122.05C419.64 123.713 418.98 125.308 417.804 126.484C416.628 127.659 415.033 128.32 413.37 128.32H412C411.173 128.327 410.352 128.169 409.585 127.857C408.819 127.545 408.122 127.084 407.534 126.501C406.947 125.918 406.48 125.225 406.162 124.461C405.844 123.697 405.68 122.878 405.68 122.05Z" fill="#F5F5F5"/>
<path d="M500 161.85H380.7H359.01V189.42H337.32V216.99H315.63V244.56H293.94V272.13H272.25V299.69H250.56V327.26H228.87V354.83H207.18V382.4H228.87H500V161.85Z" fill="#FAFAFA"/>
<path d="M328.58 354.83H204.95V363.1H328.58V354.83Z" fill="#EBEBEB"/>
<path d="M350.27 327.26H226.64V335.53H350.27V327.26Z" fill="#EBEBEB"/>
<path d="M371.96 299.69H248.33V307.96H371.96V299.69Z" fill="#EBEBEB"/>
<path d="M393.65 272.12H270.02V280.39H393.65V272.12Z" fill="#EBEBEB"/>
<path d="M415.34 244.56H291.71V252.83H415.34V244.56Z" fill="#EBEBEB"/>
<path d="M437.03 216.99H313.4V225.26H437.03V216.99Z" fill="#EBEBEB"/>
<path d="M458.72 189.42H335.09V197.69H458.72V189.42Z" fill="#EBEBEB"/>
<path d="M480.41 161.85H356.78V170.12H480.41V161.85Z" fill="#EBEBEB"/>
<path d="M478.31 161.85V189.42H456.62V216.99H434.93V244.56H413.24V272.13H391.55V299.69H369.86V327.26H348.17V354.83H326.48V382.4H348.17H500V189.42V161.85H478.31Z" fill="white"/>
<path d="M250 427.56C357.082 427.56 443.89 422.492 443.89 416.24C443.89 409.988 357.082 404.92 250 404.92C142.917 404.92 56.1099 409.988 56.1099 416.24C56.1099 422.492 142.917 427.56 250 427.56Z" fill="#F5F5F5"/>
<path d="M365.15 162C366.55 166.69 373.77 175.47 374.34 181.86C374.91 188.25 362.6 198.47 362.6 198.47C362.6 198.47 353.4 167.71 359.16 164.12C364.92 160.53 365.15 162 365.15 162Z" fill="#263238"/>
<path d="M339.87 195.23C337.69 197.05 335.55 198.58 333.32 200.15C331.09 201.72 328.79 203.15 326.45 204.49C324.101 205.879 321.681 207.145 319.2 208.28C317.94 208.85 316.69 209.41 315.39 209.9C314.75 210.16 314.1 210.41 313.44 210.63L311.44 211.33C309.73 211.808 307.941 211.937 306.18 211.71C304.708 211.538 303.25 211.257 301.82 210.87C299.153 210.132 296.543 209.203 294.01 208.09C289.092 205.943 284.348 203.419 279.82 200.54L281.69 197.06C284.05 198.06 286.47 199.06 288.87 199.93C291.27 200.8 293.69 201.72 296.11 202.47C298.469 203.243 300.874 203.871 303.31 204.35C304.428 204.569 305.561 204.706 306.7 204.76C307.549 204.826 308.402 204.738 309.22 204.5C311.501 203.627 313.732 202.625 315.9 201.5C317.01 200.92 318.11 200.33 319.19 199.69C320.27 199.05 321.37 198.43 322.44 197.77C324.59 196.44 326.69 195.03 328.77 193.58C330.85 192.13 332.92 190.58 334.77 189.11L339.87 195.23Z" fill="#E58A7B"/>
<path d="M345.15 184.58C342.67 182.64 332.41 188.99 329.3 191.64L331.57 205.37C331.57 205.37 346.32 199.19 347.2 194.97C348.13 190.56 347 186.06 345.15 184.58Z" fill="#218AC0"/>
<path opacity="0.2" d="M345.15 184.58C342.67 182.64 332.41 188.99 329.3 191.64L331.57 205.37C331.57 205.37 346.32 199.19 347.2 194.97C348.13 190.56 347 186.06 345.15 184.58Z" fill="black"/>
<path d="M379.66 226.13L348.52 232.2C332.43 188.63 335.93 187.2 335.93 187.2C338.193 185.957 340.531 184.854 342.93 183.9L343.35 183.74C345.35 183.01 345.75 182.9 348.41 182.12C352.99 181.03 357.26 180.12 362.55 179.37L363.55 179.23C364.55 179.11 365.46 179.01 366.38 178.92C367 178.85 367.62 178.81 368.21 178.77L370.21 178.66C373.63 178.49 376.08 178.54 376.08 178.54C375.13 205.75 376.67 213.56 379.66 226.13Z" fill="#218AC0"/>
<path opacity="0.2" d="M379.66 226.13L348.52 232.2C332.43 188.63 335.93 187.2 335.93 187.2C338.193 185.957 340.531 184.854 342.93 183.9L343.35 183.74C345.35 183.01 345.75 182.9 348.41 182.12C352.99 181.03 357.26 180.12 362.55 179.37L363.55 179.23C364.55 179.11 365.46 179.01 366.38 178.92C367 178.85 367.62 178.81 368.21 178.77L370.21 178.66C373.63 178.49 376.08 178.54 376.08 178.54C375.13 205.75 376.67 213.56 379.66 226.13Z" fill="black"/>
<path d="M355.27 165.13C353.27 168.44 360.52 169.97 364.81 166.58C368.24 163.86 367.43 157.58 364.49 156.12C361.55 154.66 355.27 165.13 355.27 165.13Z" fill="#218AC0"/>
<path opacity="0.4" d="M355.27 165.13C353.27 168.44 360.52 169.97 364.81 166.58C368.24 163.86 367.43 157.58 364.49 156.12C361.55 154.66 355.27 165.13 355.27 165.13Z" fill="black"/>
<path d="M385.58 406.47L377.79 407.05L374.94 389.12L382.73 388.54L385.58 406.47Z" fill="#E58A7B"/>
<path d="M440.68 381.41L434.07 385.57L422.3 371.61L428.91 367.44L440.68 381.41Z" fill="#E58A7B"/>
<path d="M374.94 389.12L376.52 399.08L384.2 397.79L382.74 388.55L374.94 389.12Z" fill="#CF6F64"/>
<path d="M428.92 367.45L422.3 371.61L427.18 377.39L433.94 373.4L428.92 367.45Z" fill="#CF6F64"/>
<path d="M349 232.2C349 232.2 348.89 294.02 353.94 317.3C359.2 341.52 374.67 396.62 374.67 396.62L385.89 395.17C385.89 395.17 377.12 339.51 373.38 315.44C369.31 289.21 371.81 227.76 371.81 227.76L349 232.2Z" fill="#218AC0"/>
<path opacity="0.7" d="M349 232.2C349 232.2 348.89 294.02 353.94 317.3C359.2 341.52 374.67 396.62 374.67 396.62L385.89 395.17C385.89 395.17 377.12 339.51 373.38 315.44C369.31 289.21 371.81 227.76 371.81 227.76L349 232.2Z" fill="black"/>
<path opacity="0.5" d="M371.11 255.16L365.61 249.68C365.82 273.43 367.15 285.16 371.72 297.94C371 284.43 370.94 268.45 371.11 255.16Z" fill="black"/>
<path d="M356.74 230.6C356.74 230.6 373.51 281.69 381.83 311.12C390.61 342.17 424.27 376.51 424.27 376.51L433.93 370.93C433.93 370.93 410.93 338.33 402.47 309.36C385.27 250.55 392.34 238.09 379.65 226.13L356.74 230.6Z" fill="#218AC0"/>
<path opacity="0.7" d="M356.74 230.6C356.74 230.6 373.51 281.69 381.83 311.12C390.61 342.17 424.27 376.51 424.27 376.51L433.93 370.93C433.93 370.93 410.93 338.33 402.47 309.36C385.27 250.55 392.34 238.09 379.65 226.13L356.74 230.6Z" fill="black"/>
<path d="M343.56 147.09C348.02 148.58 352.07 159.65 352.24 164.01C352.41 168.37 339.32 174.38 339.32 174.38C339.32 174.38 333.55 160.38 335.16 151.38C335.86 147.47 343.56 147.09 343.56 147.09Z" fill="#263238"/>
<path d="M282.35 197.43L277.06 191.67L275.33 198.89C275.33 198.89 279.09 202.21 282.13 201.07L282.35 197.43Z" fill="#E58A7B"/>
<path d="M271.7 190.02L268 192.96L275.33 198.89L277.06 191.67L271.7 190.02Z" fill="#E58A7B"/>
<path d="M432 384.08L438.18 377.85C438.287 377.743 438.428 377.679 438.579 377.668C438.729 377.657 438.879 377.7 439 377.79L444.63 381.97C444.769 382.079 444.884 382.217 444.966 382.374C445.048 382.531 445.096 382.703 445.106 382.88C445.117 383.057 445.089 383.234 445.026 383.399C444.963 383.565 444.865 383.715 444.74 383.84C442.54 385.97 441.38 386.89 438.66 389.63C436.99 391.32 434.72 393.95 432.41 396.28C430.1 398.61 427.67 396.44 428.41 395.28C431.78 390.01 431.18 388.04 431.41 385.36C431.445 384.876 431.654 384.421 432 384.08Z" fill="#263238"/>
<path d="M377.27 405.93H386.05C386.205 405.93 386.354 405.984 386.473 406.083C386.592 406.181 386.672 406.318 386.7 406.47L388.08 413.41C388.111 413.581 388.104 413.756 388.059 413.924C388.015 414.092 387.934 414.247 387.822 414.38C387.71 414.513 387.57 414.619 387.413 414.692C387.255 414.765 387.084 414.801 386.91 414.8C383.84 414.75 382.36 414.57 378.5 414.57C376.13 414.57 371.23 414.81 367.95 414.81C364.67 414.81 364.32 411.57 365.67 411.28C371.67 409.96 374.02 408.15 375.99 406.41C376.347 406.105 376.8 405.935 377.27 405.93Z" fill="#263238"/>
<g style="mix-blend-mode:multiply" opacity="0.27">
<path d="M377.09 194.31L372.29 197.17L377.83 218C376.62 211.69 377.16 204.76 377.09 194.31Z" fill="#218AC0"/>
</g>
<path d="M349.81 161.79C353.22 164.64 358.17 168.79 364 163.94C369 159.76 372.5 148.79 363.53 148.39C358.84 148.18 349.81 161.79 349.81 161.79Z" fill="#263238"/>
<path d="M358.05 163.74C358.05 168.46 358.78 176.97 362.55 179.39C362.55 179.39 362.21 184.25 353.75 185.89C344.46 187.7 348.41 182.14 348.41 182.14C353.25 179.94 352.41 176.2 350.81 172.84L358.05 163.74Z" fill="#E58A7B"/>
<path d="M355.1 167.45L350.82 172.84C351.195 173.619 351.503 174.429 351.74 175.26C353.62 174.6 355.87 171.96 355.68 169.89C355.639 169.048 355.442 168.221 355.1 167.45Z" fill="#CF6F64"/>
<path d="M358.5 152.9C359.5 160.59 360.11 163.82 357.03 168.47C352.4 175.47 342.74 175.02 339.45 167.79C336.45 161.28 335.33 149.79 342.17 145.34C343.674 144.344 345.408 143.75 347.206 143.614C349.005 143.477 350.808 143.804 352.445 144.562C354.082 145.319 355.498 146.483 356.558 147.943C357.617 149.402 358.286 151.109 358.5 152.9Z" fill="#E58A7B"/>
<path d="M345.14 139.43C339.94 143.12 350.37 144.21 350.38 149.56C350.38 151.77 354.01 158.78 359.17 158.38L364.17 149.5C369.43 141 357 131 345.14 139.43Z" fill="#263238"/>
<path d="M345.14 139.43C335.99 138.95 332 146.23 333.05 152.77C339.433 151.178 346.036 150.654 352.59 151.22C365.13 152.5 345.14 139.43 345.14 139.43Z" fill="#263238"/>
<path d="M361 159.53C361.127 161.022 360.656 162.504 359.69 163.65C358.4 165.16 356.69 164.27 356.09 162.48C355.58 160.86 355.64 158.13 357.38 157.27C357.764 157.092 358.187 157.013 358.61 157.039C359.032 157.066 359.442 157.197 359.801 157.421C360.16 157.645 360.458 157.956 360.667 158.324C360.877 158.692 360.991 159.106 361 159.53Z" fill="#E58A7B"/>
<path d="M347.39 157.27C347.51 157.89 347.28 158.45 346.88 158.53C346.48 158.61 346.05 158.17 345.93 157.53C345.81 156.89 346.04 156.34 346.44 156.26C346.84 156.18 347.27 156.65 347.39 157.27Z" fill="#263238"/>
<path d="M340.4 158.63C340.52 159.25 340.29 159.82 339.89 159.9C339.49 159.98 339.06 159.54 338.94 158.9C338.82 158.26 339.05 157.71 339.45 157.64C339.85 157.57 340.28 158 340.4 158.63Z" fill="#263238"/>
<path d="M339.64 157.65L338.07 157.52C338.07 157.52 339.06 158.53 339.64 157.65Z" fill="#263238"/>
<path d="M342.46 159.34C342.179 160.855 341.695 162.325 341.02 163.71C341.379 163.877 341.769 163.964 342.165 163.964C342.561 163.964 342.951 163.877 343.31 163.71L342.46 159.34Z" fill="#DF5753"/>
<path d="M345.92 165.71C345.877 165.711 345.835 165.696 345.802 165.668C345.769 165.641 345.747 165.602 345.74 165.56C345.736 165.536 345.736 165.512 345.742 165.489C345.747 165.465 345.757 165.443 345.771 165.423C345.785 165.404 345.803 165.387 345.823 165.375C345.844 165.362 345.866 165.354 345.89 165.35C346.663 165.215 347.394 164.901 348.022 164.432C348.651 163.963 349.161 163.352 349.51 162.65C349.519 162.628 349.533 162.607 349.55 162.59C349.567 162.573 349.587 162.56 349.609 162.55C349.632 162.541 349.656 162.536 349.68 162.536C349.704 162.536 349.728 162.541 349.75 162.55C349.773 162.559 349.793 162.573 349.81 162.59C349.827 162.607 349.841 162.627 349.85 162.649C349.859 162.672 349.864 162.695 349.864 162.72C349.864 162.744 349.859 162.768 349.85 162.79C349.484 163.553 348.939 164.217 348.262 164.726C347.585 165.234 346.795 165.572 345.96 165.71H345.92Z" fill="#263238"/>
<path d="M349 154.61C348.908 154.611 348.82 154.579 348.75 154.52C348.413 154.2 348.006 153.965 347.561 153.833C347.116 153.7 346.646 153.676 346.19 153.76C346.089 153.785 345.982 153.769 345.893 153.716C345.804 153.662 345.74 153.576 345.715 153.475C345.69 153.374 345.706 153.268 345.759 153.178C345.812 153.089 345.899 153.025 346 153C346.576 152.887 347.172 152.912 347.737 153.073C348.302 153.235 348.82 153.529 349.25 153.93C349.318 153.999 349.357 154.093 349.357 154.19C349.357 154.287 349.318 154.381 349.25 154.45C349.222 154.493 349.185 154.529 349.142 154.557C349.099 154.585 349.05 154.603 349 154.61Z" fill="#263238"/>
<path d="M336.53 156C336.484 156.01 336.436 156.01 336.39 156C336.344 155.982 336.303 155.954 336.268 155.919C336.233 155.884 336.205 155.843 336.187 155.797C336.168 155.752 336.159 155.703 336.159 155.653C336.16 155.604 336.17 155.555 336.19 155.51C336.402 154.963 336.743 154.475 337.183 154.087C337.624 153.699 338.15 153.422 338.72 153.28C338.768 153.27 338.817 153.27 338.866 153.28C338.914 153.29 338.959 153.309 339 153.337C339.04 153.365 339.074 153.401 339.1 153.443C339.126 153.485 339.143 153.532 339.15 153.58C339.16 153.627 339.16 153.676 339.151 153.724C339.142 153.771 339.123 153.817 339.096 153.857C339.069 153.897 339.034 153.931 338.994 153.958C338.953 153.984 338.907 154.002 338.86 154.01C338.41 154.133 337.996 154.358 337.648 154.669C337.301 154.98 337.031 155.367 336.86 155.8C336.828 155.86 336.78 155.91 336.722 155.945C336.664 155.98 336.598 155.999 336.53 156Z" fill="#263238"/>
<path d="M429.68 387.71C429.509 387.706 429.341 387.66 429.191 387.576C429.041 387.492 428.914 387.374 428.82 387.23C428.749 387.145 428.701 387.044 428.682 386.935C428.663 386.826 428.672 386.714 428.71 386.61C429.06 385.67 431.82 385.07 432.13 385C432.166 384.994 432.203 384.998 432.237 385.012C432.271 385.026 432.299 385.05 432.32 385.08C432.341 385.109 432.353 385.144 432.353 385.18C432.353 385.216 432.341 385.251 432.32 385.28C431.78 386.17 430.72 387.66 429.73 387.71H429.68ZM431.77 385.46C430.68 385.74 429.24 386.24 429.06 386.74C429.042 386.786 429.039 386.836 429.049 386.884C429.06 386.932 429.085 386.976 429.12 387.01C429.182 387.113 429.27 387.198 429.376 387.256C429.481 387.314 429.6 387.343 429.72 387.34C430.25 387.31 431 386.62 431.77 385.46Z" fill="#218AC0"/>
<path d="M431.32 385.46C430.32 385.46 429.07 385.21 428.7 384.67C428.618 384.547 428.58 384.4 428.593 384.253C428.605 384.105 428.668 383.967 428.77 383.86C428.858 383.748 428.968 383.657 429.094 383.591C429.22 383.526 429.358 383.488 429.5 383.48H429.58C430.7 383.48 432.24 384.99 432.3 385.05C432.324 385.073 432.341 385.101 432.35 385.133C432.359 385.165 432.359 385.198 432.35 385.23C432.341 385.261 432.324 385.289 432.302 385.312C432.279 385.334 432.251 385.351 432.22 385.36C431.925 385.431 431.623 385.465 431.32 385.46ZM429.58 383.85H429.52C429.43 383.853 429.342 383.876 429.263 383.918C429.183 383.959 429.114 384.018 429.06 384.09C428.92 384.28 428.96 384.39 429.01 384.46C429.31 384.92 430.84 385.18 431.78 385.07C431.18 384.459 430.416 384.035 429.58 383.85Z" fill="#218AC0"/>
<path d="M374.4 407.3C373.728 407.36 373.055 407.191 372.49 406.82C372.357 406.716 372.252 406.58 372.185 406.424C372.119 406.269 372.093 406.099 372.11 405.93C372.11 405.83 372.135 405.731 372.184 405.643C372.233 405.555 372.304 405.482 372.39 405.43C373.31 404.89 376.53 406.49 376.89 406.67C376.924 406.688 376.952 406.716 376.97 406.75C376.987 406.784 376.995 406.822 376.99 406.86C376.985 406.898 376.97 406.933 376.945 406.962C376.92 406.99 376.887 407.01 376.85 407.02C376.044 407.189 375.224 407.283 374.4 407.3ZM372.92 405.68C372.803 405.673 372.685 405.697 372.58 405.75C372.546 405.768 372.519 405.796 372.501 405.83C372.483 405.864 372.476 405.902 372.48 405.94C372.47 406.053 372.488 406.166 372.531 406.271C372.575 406.375 372.643 406.468 372.73 406.54C373.23 406.97 374.52 407.04 376.22 406.76C375.188 406.219 374.073 405.854 372.92 405.68Z" fill="#218AC0"/>
<path d="M376.81 407H376.74C375.74 406.57 373.81 404.87 373.95 404C373.95 403.8 374.13 403.54 374.63 403.49H374.78C376.52 403.49 376.97 406.67 376.99 406.81C376.995 406.843 376.991 406.877 376.978 406.909C376.966 406.94 376.946 406.968 376.92 406.99C376.885 407.003 376.847 407.007 376.81 407ZM374.81 403.84H374.7C374.38 403.84 374.36 403.99 374.36 404.03C374.28 404.56 375.6 405.89 376.6 406.48C376.4 405.7 375.89 403.86 374.77 403.86L374.81 403.84Z" fill="#218AC0"/>
<path d="M346.63 156.29L345.06 156.15C345.06 156.15 346.05 157.17 346.63 156.29Z" fill="#263238"/>
<path d="M353.5 192.54C336.77 196.27 341.94 186.15 342.94 183.92L343.36 183.76C345.36 183.03 345.76 182.92 348.42 182.14C353.062 180.887 357.787 179.968 362.56 179.39L363.56 179.25C364.56 179.12 365.47 179.02 366.39 178.94C367.01 178.87 367.63 178.83 368.22 178.79L370.22 178.67C370.56 180.23 371.39 188.57 353.5 192.54Z" fill="#E58A7B"/>
<path d="M379.76 224.21L381.71 226.73C381.86 226.92 381.65 227.19 381.29 227.26L348.63 233.62C348.35 233.68 348.09 233.62 348.04 233.41L347.21 230.68C347.21 230.49 347.37 230.28 347.67 230.22L379.21 224.08C379.305 224.052 379.406 224.049 379.502 224.072C379.599 224.095 379.688 224.142 379.76 224.21Z" fill="#26395A"/>
<path d="M376.21 228.56L377.06 228.4C377.23 228.4 377.34 228.26 377.31 228.15L376.21 224.61C376.21 224.5 376.01 224.45 375.84 224.48L375 224.64C374.83 224.64 374.72 224.79 374.75 224.89L375.85 228.44C375.88 228.54 376.05 228.6 376.21 228.56Z" fill="#218AC0"/>
<path d="M357.08 240.36L350.57 237.94L351.57 244.13C351.57 244.13 356.29 245.83 358.7 243.65L357.08 240.36Z" fill="#E58A7B"/>
<path d="M344.37 239.58L342.82 243.64L351.57 244.13L350.57 237.94L344.37 239.58Z" fill="#E58A7B"/>
<path d="M351.06 233.46L351.91 233.3C352.07 233.3 352.19 233.16 352.15 233.05L351.05 229.51C351.05 229.4 350.86 229.35 350.69 229.38L349.84 229.54C349.67 229.54 349.56 229.69 349.6 229.79L350.7 233.34C350.73 233.44 350.89 233.5 351.06 233.46Z" fill="#218AC0"/>
<path d="M363.64 231L364.48 230.84C364.65 230.84 364.76 230.7 364.73 230.59L363.63 227.05C363.63 226.94 363.43 226.89 363.26 226.92L362.42 227.08C362.25 227.08 362.14 227.23 362.17 227.33L363.27 230.88C363.31 230.938 363.368 230.981 363.435 231.003C363.501 231.025 363.574 231.024 363.64 231Z" fill="#218AC0"/>
<path d="M360.08 175.42C360.79 175.15 361.68 177.65 361.46 177.97C360.95 178.7 351.61 181.25 351.19 179.82C351.164 179.045 351.283 178.271 351.54 177.54C351.81 177.06 353.88 177.94 360.08 175.42Z" fill="#218AC0"/>
<path d="M358.5 175.48C358.86 174.65 359.89 173.32 360.79 174.08C361.69 174.84 362.07 176.48 361.48 176.75C360.89 177.02 357.88 176.87 358.5 175.48Z" fill="#218AC0"/>
<path d="M360.41 175.91C361.03 175.25 362.41 174.34 363.04 175.36C363.67 176.38 363.44 178.05 362.8 178.1C362.16 178.15 359.36 177 360.41 175.91Z" fill="#218AC0"/>
<path d="M360.75 175.76C360.7 175.228 360.804 174.693 361.051 174.22C361.297 173.746 361.676 173.354 362.14 173.09C363.28 172.35 364.39 171.87 364.83 171.09C365.02 171.821 365.057 172.584 364.94 173.33C364.71 174.4 361.16 175.22 361.4 176.15L360.75 175.76Z" fill="#218AC0"/>
<path d="M360.6 175.71C360.269 175.29 360.066 174.784 360.016 174.251C359.967 173.719 360.072 173.184 360.32 172.71C360.86 171.47 361.54 170.47 361.5 169.59C362.055 170.101 362.501 170.721 362.81 171.41C363.19 172.41 360.66 175.04 361.37 175.7L360.6 175.71Z" fill="#218AC0"/>
<path d="M430.15 371.06C430.129 371.059 430.11 371.054 430.092 371.043C430.075 371.033 430.06 371.018 430.05 371C429.82 370.68 406.96 338.06 398.58 309.4C393.111 291.016 388.908 272.279 386 253.32C384.27 242.64 383.22 236.19 379.78 230.9C379.757 230.876 379.744 230.844 379.744 230.81C379.744 230.777 379.757 230.744 379.78 230.72C379.803 230.7 379.834 230.688 379.865 230.688C379.896 230.688 379.926 230.7 379.95 230.72C383.43 236.06 384.48 242.53 386.21 253.24C389.131 272.172 393.341 290.882 398.81 309.24C407.18 337.86 430.02 370.44 430.25 370.77C430.269 370.795 430.279 370.824 430.279 370.855C430.279 370.886 430.269 370.916 430.25 370.94C430.248 370.968 430.238 370.995 430.22 371.017C430.202 371.038 430.177 371.054 430.15 371.06Z" fill="#218AC0"/>
<path opacity="0.4" d="M430.15 371.06C430.129 371.059 430.11 371.054 430.092 371.043C430.075 371.033 430.06 371.018 430.05 371C429.82 370.68 406.96 338.06 398.58 309.4C393.111 291.016 388.908 272.279 386 253.32C384.27 242.64 383.22 236.19 379.78 230.9C379.757 230.876 379.744 230.844 379.744 230.81C379.744 230.777 379.757 230.744 379.78 230.72C379.803 230.7 379.834 230.688 379.865 230.688C379.896 230.688 379.926 230.7 379.95 230.72C383.43 236.06 384.48 242.53 386.21 253.24C389.131 272.172 393.341 290.882 398.81 309.24C407.18 337.86 430.02 370.44 430.25 370.77C430.269 370.795 430.279 370.824 430.279 370.855C430.279 370.886 430.269 370.916 430.25 370.94C430.248 370.968 430.238 370.995 430.22 371.017C430.202 371.038 430.177 371.054 430.15 371.06Z" fill="black"/>
<path d="M387.9 395.13L372.62 397.11L371.62 392.85L387.53 389.48L387.9 395.13Z" fill="#218AC0"/>
<path d="M434.74 370.59L423.47 377.1L419.67 373.85L432 365.51L434.74 370.59Z" fill="#218AC0"/>
<path d="M381.85 189.13C382.39 191.91 382.7 194.53 383 197.24C383.3 199.95 383.41 202.63 383.49 205.34C383.57 208.071 383.51 210.805 383.31 213.53C383.2 214.9 383.08 216.27 382.89 217.65C382.81 218.33 382.72 219.02 382.59 219.71L382.22 221.83C381.81 223.558 381.059 225.187 380.01 226.62C379.15 227.826 378.201 228.966 377.17 230.03C375.241 232.012 373.168 233.85 370.97 235.53C366.718 238.804 362.218 241.743 357.51 244.32L355.37 241C357.37 239.41 359.37 237.77 361.37 236.1C363.37 234.43 365.27 232.74 367.1 230.98C368.909 229.286 370.615 227.486 372.21 225.59C372.943 224.713 373.611 223.783 374.21 222.81C374.683 222.101 375.021 221.311 375.21 220.48C375.535 218.052 375.726 215.609 375.78 213.16C375.78 211.91 375.78 210.66 375.78 209.41C375.78 208.16 375.73 206.89 375.67 205.63C375.55 203.11 375.32 200.63 375.05 198.07C374.78 195.51 374.43 192.98 374.05 190.61L381.85 189.13Z" fill="#E58A7B"/>
<path d="M380.64 180.63C384.91 184.09 383.89 194.37 383.89 194.37L369.49 199.11C369.49 199.11 370.15 187.26 370.87 183C371.71 177.93 376.43 177.22 380.64 180.63Z" fill="#218AC0"/>
<path opacity="0.2" d="M380.64 180.63C384.91 184.09 383.89 194.37 383.89 194.37L369.49 199.11C369.49 199.11 370.15 187.26 370.87 183C371.71 177.93 376.43 177.22 380.64 180.63Z" fill="black"/>
<path d="M190.41 223.53C189.851 221.105 188.487 218.942 186.54 217.392C184.593 215.843 182.178 215 179.69 215H99.6899C96.7726 215 93.9747 216.159 91.9118 218.222C89.8489 220.285 88.6899 223.083 88.6899 226V403.82C88.6899 406.737 89.8489 409.535 91.9118 411.598C93.9747 413.661 96.7726 414.82 99.6899 414.82H353.69C356.607 414.82 359.405 413.661 361.468 411.598C363.531 409.535 364.69 406.737 364.69 403.82V254.45C364.69 251.533 363.531 248.735 361.468 246.672C359.405 244.609 356.607 243.45 353.69 243.45H215.44C209.63 243.451 203.991 241.482 199.444 237.863C194.898 234.245 191.713 229.192 190.41 223.53Z" fill="#218AC0"/>
<path opacity="0.6" d="M190.41 223.53C189.851 221.105 188.487 218.942 186.54 217.392C184.593 215.843 182.178 215 179.69 215H99.6899C96.7726 215 93.9747 216.159 91.9118 218.222C89.8489 220.285 88.6899 223.083 88.6899 226V403.82C88.6899 406.737 89.8489 409.535 91.9118 411.598C93.9747 413.661 96.7726 414.82 99.6899 414.82H353.69C356.607 414.82 359.405 413.661 361.468 411.598C363.531 409.535 364.69 406.737 364.69 403.82V254.45C364.69 251.533 363.531 248.735 361.468 246.672C359.405 244.609 356.607 243.45 353.69 243.45H215.44C209.63 243.451 203.991 241.482 199.444 237.863C194.898 234.245 191.713 229.192 190.41 223.53Z" fill="black"/>
<path opacity="0.22" d="M162.17 168.15L169.3 191.24C170.21 194.179 172.249 196.636 174.97 198.072C177.691 199.508 180.87 199.806 183.81 198.9L206.89 191.77L162.17 168.15Z" fill="#218AC0"/>
<path d="M162.17 168.15L79.6698 193.64C78.2134 194.087 76.8595 194.817 75.6856 195.789C74.5117 196.76 73.5408 197.953 72.8284 199.3C72.116 200.646 71.6762 202.12 71.534 203.637C71.3918 205.154 71.5501 206.684 71.9998 208.14L119.1 360.62C119.549 362.076 120.281 363.429 121.254 364.602C122.226 365.775 123.421 366.744 124.768 367.456C126.115 368.167 127.59 368.606 129.107 368.747C130.624 368.889 132.154 368.73 133.61 368.28L239.2 335.66C240.655 335.211 242.008 334.481 243.181 333.509C244.354 332.537 245.324 331.344 246.035 329.997C246.746 328.651 247.185 327.177 247.327 325.661C247.468 324.144 247.31 322.615 246.86 321.16L206.86 191.77L162.17 168.15Z" fill="#218AC0"/>
<path opacity="0.8" d="M162.17 168.15L79.6698 193.64C78.2134 194.087 76.8595 194.817 75.6856 195.789C74.5117 196.76 73.5408 197.953 72.8284 199.3C72.116 200.646 71.6762 202.12 71.534 203.637C71.3918 205.154 71.5501 206.684 71.9998 208.14L119.1 360.62C119.549 362.076 120.281 363.429 121.254 364.602C122.226 365.775 123.421 366.744 124.768 367.456C126.115 368.167 127.59 368.606 129.107 368.747C130.624 368.889 132.154 368.73 133.61 368.28L239.2 335.66C240.655 335.211 242.008 334.481 243.181 333.509C244.354 332.537 245.324 331.344 246.035 329.997C246.746 328.651 247.185 327.177 247.327 325.661C247.468 324.144 247.31 322.615 246.86 321.16L206.86 191.77L162.17 168.15Z" fill="white"/>
<g opacity="0.28">
<path d="M206.56 329L137.92 350.2C136.636 350.594 135.248 350.464 134.06 349.839C132.872 349.213 131.98 348.142 131.58 346.86C131.189 345.577 131.322 344.19 131.949 343.004C132.577 341.818 133.648 340.929 134.93 340.53L203.57 319.32C204.855 318.926 206.243 319.058 207.432 319.686C208.62 320.314 209.511 321.387 209.91 322.67C210.3 323.954 210.167 325.34 209.54 326.526C208.912 327.712 207.841 328.601 206.56 329Z" fill="#218AC0"/>
</g>
<g opacity="0.28">
<path d="M132.69 204.58L96.3897 215.79C95.106 216.182 93.7197 216.05 92.5323 215.425C91.345 214.799 90.4527 213.73 90.0497 212.45C89.6586 211.165 89.7912 209.778 90.4187 208.59C91.0462 207.403 92.1177 206.511 93.3997 206.11L129.7 194.9C130.983 194.503 132.372 194.632 133.561 195.258C134.75 195.884 135.641 196.957 136.04 198.24C136.431 199.525 136.298 200.913 135.671 202.1C135.043 203.288 133.972 204.179 132.69 204.58Z" fill="#218AC0"/>
</g>
<g opacity="0.28">
<path d="M162.31 216.47L102.31 235C101.029 235.385 99.6479 235.249 98.4666 234.622C97.2852 233.995 96.3989 232.927 95.9999 231.65C95.606 230.368 95.7363 228.982 96.3623 227.795C96.9883 226.609 98.059 225.719 99.3399 225.32L159.34 206.79C160.624 206.396 162.011 206.526 163.199 207.152C164.387 207.778 165.279 208.849 165.68 210.13C166.067 211.418 165.931 212.806 165.3 213.994C164.669 215.181 163.594 216.071 162.31 216.47Z" fill="#218AC0"/>
</g>
<g opacity="0.28">
<path d="M195.81 227.16L108.25 254.16C106.967 254.554 105.581 254.424 104.395 253.798C103.208 253.172 102.318 252.101 101.92 250.82C101.528 249.536 101.659 248.15 102.285 246.963C102.91 245.775 103.98 244.883 105.26 244.48L192.82 217.48C194.102 217.089 195.487 217.22 196.673 217.846C197.858 218.472 198.749 219.541 199.15 220.82C199.544 222.104 199.414 223.491 198.788 224.679C198.162 225.867 197.091 226.759 195.81 227.16Z" fill="#218AC0"/>
</g>
<g opacity="0.28">
<path d="M201.74 246.36L150.84 262.09C149.556 262.481 148.17 262.348 146.984 261.72C145.798 261.093 144.908 260.021 144.51 258.74C144.118 257.458 144.25 256.073 144.876 254.887C145.501 253.701 146.57 252.811 147.85 252.41L198.75 236.68C200.035 236.292 201.421 236.426 202.608 237.053C203.795 237.68 204.686 238.75 205.09 240.03C205.48 241.314 205.348 242.7 204.72 243.886C204.092 245.072 203.021 245.961 201.74 246.36Z" fill="#218AC0"/>
</g>
<g opacity="0.28">
<path d="M127.5 269.3L114.19 273.41C112.906 273.805 111.519 273.675 110.331 273.049C109.143 272.423 108.251 271.352 107.85 270.07C107.456 268.785 107.588 267.397 108.215 266.208C108.843 265.02 109.916 264.129 111.2 263.73L124.51 259.62C125.794 259.229 127.18 259.36 128.367 259.986C129.555 260.611 130.447 261.68 130.85 262.96C131.238 264.245 131.104 265.632 130.477 266.819C129.85 268.005 128.78 268.897 127.5 269.3Z" fill="#218AC0"/>
</g>
<g opacity="0.28">
<path d="M207.68 265.57L120.12 292.62C118.836 293.011 117.45 292.878 116.264 292.25C115.078 291.623 114.189 290.551 113.79 289.27C113.396 287.988 113.526 286.602 114.152 285.415C114.778 284.229 115.849 283.339 117.13 282.94L204.69 255.89C205.972 255.499 207.357 255.63 208.543 256.256C209.729 256.882 210.619 257.951 211.02 259.23C211.414 260.514 211.284 261.901 210.658 263.089C210.032 264.277 208.962 265.169 207.68 265.57Z" fill="#218AC0"/>
</g>
<g opacity="0.28">
<path d="M179.82 295.21L126.05 311.82C124.768 312.211 123.383 312.08 122.197 311.454C121.011 310.828 120.121 309.759 119.72 308.48C119.328 307.196 119.46 305.81 120.085 304.623C120.711 303.435 121.78 302.543 123.06 302.14L176.83 285.53C178.115 285.139 179.502 285.272 180.69 285.899C181.878 286.527 182.769 287.598 183.17 288.88C183.564 290.164 183.432 291.551 182.804 292.738C182.176 293.924 181.103 294.814 179.82 295.21Z" fill="#218AC0"/>
</g>
<g opacity="0.28">
<path d="M213.61 284.78L199.26 289.21C197.975 289.601 196.587 289.468 195.4 288.841C194.212 288.213 193.321 287.142 192.92 285.86C192.529 284.576 192.662 283.19 193.29 282.004C193.917 280.818 194.989 279.929 196.27 279.53L210.62 275.1C211.902 274.706 213.288 274.836 214.475 275.462C215.661 276.088 216.551 277.159 216.95 278.44C217.344 279.724 217.214 281.111 216.588 282.299C215.962 283.487 214.892 284.379 213.61 284.78Z" fill="#218AC0"/>
</g>
<g opacity="0.28">
<path d="M219.54 304L132 331C130.715 331.394 129.326 331.263 128.138 330.635C126.949 330.007 126.058 328.934 125.66 327.65C125.266 326.367 125.398 324.979 126.026 323.793C126.654 322.606 127.727 321.717 129.01 321.32L216.56 294.27C217.845 293.882 219.231 294.016 220.418 294.643C221.605 295.27 222.496 296.34 222.9 297.62C223.101 298.26 223.173 298.933 223.113 299.6C223.052 300.268 222.86 300.917 222.548 301.51C222.236 302.103 221.809 302.628 221.293 303.056C220.776 303.483 220.181 303.804 219.54 304Z" fill="#218AC0"/>
</g>
<path d="M221.42 110.81L247.6 169.15C248.279 170.673 248.328 172.403 247.736 173.962C247.144 175.521 245.959 176.783 244.44 177.47L133.38 227.32C131.857 228.003 130.126 228.053 128.566 227.461C127.006 226.868 125.745 225.681 125.06 224.16L98.8697 165.82C98.1841 164.297 98.1319 162.563 98.7245 161.001C99.3171 159.439 100.506 158.176 102.03 157.49L213.09 107.64C214.615 106.961 216.348 106.913 217.909 107.507C219.469 108.101 220.732 109.289 221.42 110.81Z" fill="#218AC0"/>
<path opacity="0.3" d="M221.42 110.81L247.6 169.15C248.279 170.673 248.328 172.403 247.736 173.962C247.144 175.521 245.959 176.783 244.44 177.47L133.38 227.32C131.857 228.003 130.126 228.053 128.566 227.461C127.006 226.868 125.745 225.681 125.06 224.16L98.8697 165.82C98.1841 164.297 98.1319 162.563 98.7245 161.001C99.3171 159.439 100.506 158.176 102.03 157.49L213.09 107.64C214.615 106.961 216.348 106.913 217.909 107.507C219.469 108.101 220.732 109.289 221.42 110.81Z" fill="black"/>
<path d="M203.916 107.927L200.367 109.52L200.776 110.432L204.326 108.84L203.916 107.927Z" fill="#218AC0"/>
<path d="M195.397 111.744L184.329 116.709L184.738 117.621L195.806 112.657L195.397 111.744Z" fill="#218AC0"/>
<path d="M98.7711 171.7L97.8589 172.109L100.89 178.86L101.802 178.451L98.7711 171.7Z" fill="#218AC0"/>
<path opacity="0.6" d="M217.7 107.43L189.06 163.53C186.402 168.73 182.05 172.867 176.722 175.258C171.395 177.649 165.411 178.151 159.76 176.68L98.8096 160.79C99.4348 159.328 100.583 158.151 102.03 157.49L213.09 107.64C214.544 106.99 216.192 106.915 217.7 107.43Z" fill="#218AC0"/>
<path d="M257.07 179.23L170.89 184.55C169.367 184.64 167.878 185.03 166.506 185.697C165.134 186.364 163.908 187.295 162.896 188.437C161.885 189.578 161.108 190.908 160.611 192.35C160.114 193.792 159.906 195.318 160 196.84L169.83 356.12C169.922 357.643 170.313 359.134 170.982 360.506C171.65 361.878 172.583 363.104 173.727 364.115C174.87 365.125 176.202 365.901 177.646 366.396C179.089 366.891 180.617 367.096 182.14 367L292.44 360.19C293.961 360.098 295.448 359.707 296.818 359.04C298.187 358.372 299.412 357.441 300.42 356.299C301.429 355.157 302.203 353.828 302.697 352.386C303.191 350.945 303.396 349.421 303.3 347.9L295 212.73L257.07 179.23Z" fill="#218AC0"/>
<path opacity="0.8" d="M257.07 179.23L170.89 184.55C169.367 184.64 167.878 185.03 166.506 185.697C165.134 186.364 163.908 187.295 162.896 188.437C161.885 189.578 161.108 190.908 160.611 192.35C160.114 193.792 159.906 195.318 160 196.84L169.83 356.12C169.922 357.643 170.313 359.134 170.982 360.506C171.65 361.878 172.583 363.104 173.727 364.115C174.87 365.125 176.202 365.901 177.646 366.396C179.089 366.891 180.617 367.096 182.14 367L292.44 360.19C293.961 360.098 295.448 359.707 296.818 359.04C298.187 358.372 299.412 357.441 300.42 356.299C301.429 355.157 302.203 353.828 302.697 352.386C303.191 350.945 303.396 349.421 303.3 347.9L295 212.73L257.07 179.23Z" fill="white"/>
<g opacity="0.22">
<path d="M262.28 346L190.57 350.43C189.23 350.507 187.915 350.05 186.911 349.16C185.906 348.271 185.295 347.019 185.21 345.68C185.133 344.341 185.588 343.026 186.476 342.02C187.363 341.015 188.612 340.4 189.95 340.31L261.66 335.89C263 335.811 264.316 336.265 265.323 337.153C266.329 338.041 266.943 339.291 267.03 340.63C267.109 341.972 266.654 343.29 265.764 344.296C264.874 345.303 263.621 345.915 262.28 346Z" fill="#218AC0"/>
</g>
<g opacity="0.22">
<path d="M219.84 207.68L181.91 210C180.571 210.077 179.255 209.622 178.25 208.734C177.244 207.847 176.63 206.598 176.54 205.26C176.463 203.919 176.919 202.603 177.809 201.597C178.698 200.591 179.95 199.977 181.29 199.89L219.22 197.55C220.558 197.471 221.874 197.925 222.878 198.813C223.883 199.701 224.495 200.952 224.58 202.29C224.665 203.633 224.213 204.955 223.324 205.965C222.436 206.976 221.182 207.593 219.84 207.68Z" fill="#218AC0"/>
</g>
<g opacity="0.22">
<path d="M245.82 226.22L183.15 230.08C181.81 230.162 180.491 229.709 179.485 228.821C178.478 227.932 177.865 226.68 177.78 225.34C177.7 223.999 178.156 222.681 179.046 221.674C179.936 220.668 181.189 220.055 182.53 219.97L245.19 216.11C246.53 216.028 247.848 216.481 248.855 217.37C249.862 218.258 250.475 219.51 250.56 220.85C250.639 222.19 250.185 223.506 249.297 224.513C248.409 225.519 247.159 226.133 245.82 226.22Z" fill="#218AC0"/>
</g>
<g opacity="0.22">
<path d="M275.85 244.51L184.39 250.15C183.046 250.232 181.724 249.779 180.714 248.888C179.703 247.998 179.087 246.744 179 245.4C178.92 244.061 179.374 242.746 180.263 241.741C181.151 240.737 182.401 240.125 183.74 240.04L275.21 234.39C276.549 234.313 277.865 234.77 278.869 235.66C279.873 236.55 280.485 237.801 280.57 239.14C280.649 240.477 280.198 241.79 279.314 242.796C278.43 243.802 277.185 244.418 275.85 244.51Z" fill="#218AC0"/>
</g>
<g opacity="0.22">
<path d="M277.09 264.57L223.92 267.85C222.58 267.93 221.264 267.476 220.257 266.588C219.251 265.7 218.637 264.449 218.55 263.11C218.468 261.77 218.921 260.452 219.809 259.445C220.698 258.438 221.95 257.825 223.29 257.74L276.46 254.46C277.8 254.378 279.119 254.831 280.125 255.72C281.132 256.608 281.745 257.86 281.83 259.2C281.909 260.54 281.456 261.857 280.568 262.863C279.679 263.869 278.429 264.483 277.09 264.57Z" fill="#218AC0"/>
</g>
<g opacity="0.22">
<path d="M199.53 269.35L185.62 270.21C184.281 270.29 182.966 269.835 181.961 268.947C180.957 268.059 180.345 266.809 180.26 265.47C180.18 264.131 180.634 262.814 181.522 261.808C182.411 260.802 183.661 260.188 185 260.1L198.91 259.24C200.251 259.164 201.567 259.62 202.573 260.509C203.579 261.399 204.192 262.65 204.28 263.99C204.357 265.33 203.9 266.645 203.01 267.65C202.12 268.654 200.869 269.265 199.53 269.35Z" fill="#218AC0"/>
</g>
<g opacity="0.22">
<path d="M278.33 284.63L186.86 290.27C185.52 290.35 184.203 289.896 183.197 289.008C182.191 288.119 181.577 286.869 181.49 285.53C181.413 284.189 181.869 282.873 182.759 281.867C183.649 280.861 184.9 280.248 186.24 280.16L277.7 274.52C279.041 274.441 280.359 274.896 281.366 275.786C282.372 276.676 282.985 277.929 283.07 279.27C283.149 280.609 282.695 281.924 281.807 282.929C280.918 283.933 279.668 284.545 278.33 284.63Z" fill="#218AC0"/>
</g>
<g opacity="0.22">
<path d="M244.27 306.87L188.1 310.34C186.759 310.417 185.443 309.961 184.437 309.071C183.431 308.181 182.817 306.93 182.73 305.59C182.653 304.251 183.11 302.935 184 301.931C184.89 300.927 186.141 300.315 187.48 300.23L243.65 296.76C244.99 296.684 246.305 297.14 247.309 298.03C248.314 298.92 248.925 300.171 249.01 301.51C249.092 302.85 248.639 304.167 247.75 305.172C246.861 306.177 245.609 306.788 244.27 306.87Z" fill="#218AC0"/>
</g>
<g opacity="0.22">
<path d="M279.56 304.7L264.56 305.62C263.221 305.699 261.906 305.245 260.901 304.357C259.897 303.469 259.285 302.218 259.2 300.88C259.118 299.54 259.571 298.222 260.459 297.215C261.348 296.208 262.6 295.595 263.94 295.51L278.94 294.59C280.28 294.508 281.598 294.961 282.605 295.85C283.612 296.738 284.225 297.99 284.31 299.33C284.387 300.671 283.93 301.987 283.041 302.993C282.151 303.999 280.9 304.613 279.56 304.7Z" fill="#218AC0"/>
</g>
<g opacity="0.22">
<path d="M280.8 324.76L189.34 330.4C188 330.479 186.683 330.026 185.677 329.138C184.671 328.249 184.057 326.999 183.97 325.66C183.89 324.32 184.344 323.004 185.232 321.997C186.12 320.991 187.371 320.377 188.71 320.29L280.18 314.65C281.519 314.571 282.834 315.025 283.839 315.913C284.843 316.802 285.455 318.052 285.54 319.39C285.622 320.73 285.169 322.049 284.28 323.055C283.392 324.062 282.14 324.675 280.8 324.76Z" fill="#218AC0"/>
</g>
<path opacity="0.22" d="M257.07 179.23L258.56 203.35C258.653 204.871 259.045 206.358 259.713 207.728C260.381 209.097 261.312 210.321 262.453 211.331C263.594 212.34 264.923 213.115 266.364 213.611C267.805 214.106 269.329 214.313 270.85 214.22L295 212.73L257.07 179.23Z" fill="#218AC0"/>
<path opacity="0.5" d="M228.85 239.4C228.835 238.244 228.588 237.103 228.125 236.044C227.661 234.985 226.99 234.03 226.151 233.235C225.312 232.439 224.322 231.82 223.24 231.414C222.158 231.008 221.005 230.823 219.85 230.87H139.75C133.68 230.87 127.75 235.8 126.61 241.87L95 403.82C93.82 409.89 97.78 414.82 103.85 414.82H357.85C363.92 414.82 369.8 409.9 370.99 403.82L397.06 270.32C398.24 264.24 394.28 259.32 388.21 259.32H250C238 259.32 229.26 251.06 228.85 239.4Z" fill="#218AC0"/>
</svg>
